<?xml version="1.0" encoding="UTF-8" standalone="no"?>
<!-- Created with Inkscape (http://www.inkscape.org/) -->

<svg
   width="210mm"
   height="297mm"
   viewBox="0 0 210 297"
   version="1.1"
   id="svg1"
   inkscape:version="1.4.2 (f4327f4, 2025-05-13)"
   sodipodi:docname="PalmeraAlt2.svg"
   xmlns:inkscape="http://www.inkscape.org/namespaces/inkscape"
   xmlns:sodipodi="http://sodipodi.sourceforge.net/DTD/sodipodi-0.dtd"
   xmlns="http://www.w3.org/2000/svg"
   xmlns:svg="http://www.w3.org/2000/svg">
  <sodipodi:namedview
     id="namedview1"
     pagecolor="#505050"
     bordercolor="#eeeeee"
     borderopacity="1"
     inkscape:showpageshadow="0"
     inkscape:pageopacity="0"
     inkscape:pagecheckerboard="0"
     inkscape:deskcolor="#505050"
     inkscape:document-units="mm"
     inkscape:zoom="0.68862935"
     inkscape:cx="542.38176"
     inkscape:cy="642.5808"
     inkscape:window-width="1920"
     inkscape:window-height="991"
     inkscape:window-x="-9"
     inkscape:window-y="-9"
     inkscape:window-maximized="1"
     inkscape:current-layer="layer1"
     showgrid="false" />
  <defs
     id="defs1" />
  <g
     inkscape:label="Capa 1"
     inkscape:groupmode="layer"
     id="layer1">
    <path
       id="path64"
       style="fill:#241b47;fill-opacity:1;fill-rule:nonzero;stroke:none;stroke-width:0.0252465"
       d="m 96.039637,154.00028 c 0.31382,-1.35068 1.02905,-2.60291 2.03183,-3.56227 2.841753,8.24297 5.499453,16.54906 7.970323,24.9107 2.13711,-5.96322 4.27423,-11.92644 6.41134,-17.88966 0.82657,1.54004 1.65314,3.08007 2.47971,4.62011 -0.35951,-7.45276 -0.71902,-14.90805 -1.07853,-22.36333 2.41533,2.71904 4.83091,5.43556 7.246,8.15208 -2.41963,-9.59618 -5.48253,-19.03332 -9.16094,-28.22051 3.00155,1.65365 5.69535,3.86271 7.90341,6.48077 -2.16666,-9.54064 -4.33356,-19.07876 -6.49996,-28.619409 -1.17118,-5.15785 -2.46835,-10.563123 -6.02987,-14.471278 -9.313173,-10.222298 -26.487093,-3.11794 -27.309373,10.298038 -0.31407,5.12251 1.77558,10.482339 1.95206,15.670489 0.25474,7.48558 1.54559,14.74142 3.83822,21.87607 2.58297,8.03848 6.1912,15.72351 10.24578,23.1182" />
    <path
       id="path68"
       style="fill:#38296e;fill-opacity:1;fill-rule:nonzero;stroke:none;stroke-width:0.0262931"
       d="m 134.09895,58.550642 c 9.98086,2.75025 19.2723,8.321753 25.87555,16.296442 10.78515,13.022957 13.47414,30.797076 14.85952,47.648306 0.97574,11.8687 1.50739,23.84782 -0.0255,35.65867 -2.01299,-4.26999 -4.02573,-8.53736 -6.03873,-12.80473 -0.54032,3.53905 -1.08064,7.08073 -1.62044,10.61978 -3.40626,-8.82922 -6.94295,-17.60848 -10.60872,-26.33515 -2.02641,3.48909 -4.05282,6.97556 -6.07976,10.46465 -0.0854,-2.53991 -0.54295,-5.06931 -1.35251,-7.47775 -2.20599,3.11835 -4.41224,6.23671 -6.61849,9.3577 -0.99152,-10.01766 -2.63483,-19.97222 -4.91733,-29.7769 -2.30459,2.08767 -4.60971,4.17796 -6.9143,6.26563 -0.75329,-2.34797 -2.03613,-4.5224 -3.72546,-6.31822 -1.61939,1.98776 -3.23904,3.97288 -4.85843,5.96064 0.57187,-0.70203 -15.85683,-14.3718 -17.35474,-15.66016 -5.983783,-5.145549 -11.909463,-10.501449 -16.524153,-16.951139 -3.44913,-4.82215 -8.08171,-11.939684 -4.38516,-17.818819 3.69181,-5.873867 12.90543,-8.490033 19.176593,-9.796794 10.21591,-2.127112 21.02184,-2.116595 31.11207,0.667844" />
    <path
       id="path72"
       style="fill:#38296e;fill-opacity:1;fill-rule:nonzero;stroke:none;stroke-width:0.0259943"
       d="m 25.106257,113.63408 c -0.15752,-15.445779 4.90563,-31.692179 16.79696,-41.549199 10.77981,-8.936816 25.66516,-11.458257 39.62796,-10.413293 4.41071,0.330128 9.26488,1.23993 11.9506,4.754348 1.77619,2.326488 2.2511,5.373009 2.47985,8.289565 0.47933,6.108648 0.13101,12.28488 -1.03301,18.30255 -1.40083,7.241989 -3.9623,14.198049 -6.51338,21.120319 -2.43592,6.60774 -4.87158,13.21547 -7.30724,19.82321 -4.36963,-3.77696 -9.0369,-7.2082 -13.94487,-10.25473 -0.76372,3.07512 -1.17624,6.23862 -1.22693,9.40732 -1.37016,-1.66103 -3.07746,-3.04133 -4.98725,-4.03171 -0.12296,9.24875 -0.81388,18.48711 -2.06759,27.65008 -4.157,-4.10709 -8.92954,-7.58772 -14.10889,-10.29112 -0.3699,4.42162 -0.74006,8.84324 -1.1097,13.26486 -1.14634,-2.34988 -4.05094,-9.20716 -5.19703,-11.55704 0.84664,0.84481 -1.39823,16.55573 -2.26462,19.18375 -3.43123,-3.71198 -5.95476,-11.69481 -6.70183,-17.06522 -1.68599,-12.12112 -4.26696,-24.28902 -4.39303,-36.63369" />
    <path
       id="path76"
       style="fill:#63442b;fill-opacity:1;fill-rule:nonzero;stroke:none;stroke-width:0.025285"
       d="m 66.160127,274.78427 c 0,0 -2.70296,-58.12587 0.98991,-91.1784 7.53164,-67.41482 26.78312,-111.418267 26.78312,-111.418267 h 11.000483 c 0,0 -20.165533,85.255897 -19.964523,113.673687 0.36664,51.79578 14.92269,88.92298 14.92269,88.92298 h -33.73168" />
    <path
       id="path78"
       style="fill:#95693f;fill-opacity:1;fill-rule:nonzero;stroke:none;stroke-width:0.0229166"
       d="m 80.747467,204.56521 c -1.05622,-0.49042 -2.25911,-0.63708 -3.40953,-0.69896 -1.16507,-0.0619 -2.33611,-0.0275 -3.49523,0.10771 -2.22955,0.26125 -4.44031,0.94416 -6.39326,2.05562 -0.66046,0.37583 -1.28539,0.80437 -1.87549,1.27874 -0.17852,5.16539 -0.28301,10.45224 -0.33229,15.68638 1.24575,-0.97395 2.4908,-1.94791 3.73838,-2.91728 1.6807,-1.30853 3.3944,-2.59186 5.3957,-3.36873 2.0971,-0.81354 4.36354,-0.80208 6.53465,-0.30708 2.16287,0.495 4.25194,1.41395 6.19939,2.46353 -0.32656,-2.67437 -0.6247,-5.42206 -0.88824,-8.2385 -0.79566,-1.12979 -1.62043,-2.23895 -2.48233,-3.31832 -0.85432,-1.0702 -1.72148,-2.15416 -2.99175,-2.74311" />
    <path
       id="path80"
       style="fill:#95693f;fill-opacity:1;fill-rule:nonzero;stroke:none;stroke-width:0.0229166"
       d="m 80.287987,161.21396 c -0.9806,-0.37812 -1.8017,-0.11229 -2.69246,0.36666 -2.83111,1.52166 -5.57606,3.23582 -8.24217,5.04623 -0.17806,1.20541 -0.35269,2.41999 -0.52387,3.64144 0.88297,-0.54083 1.83951,-0.95333 2.86319,-1.17104 2.14751,-0.45604 4.2941,0.0756 6.05799,1.35896 1.70156,1.23749 3.00551,2.90811 4.21046,4.6131 1.08327,1.53312 2.14797,3.07999 3.2129,4.62456 0.27683,-4.31519 0.82088,-9.34766 1.5581,-14.83618 -1.24918,-0.82958 -2.53274,-1.60645 -3.84678,-2.32832 -0.84149,-0.46062 -1.7004,-0.96937 -2.59736,-1.31541" />
    <path
       id="path82"
       style="fill:#95693f;fill-opacity:1;fill-rule:nonzero;stroke:none;stroke-width:0.0229166"
       d="m 69.999827,188.01029 c 3.21886,-2.18166 7.1832,-4.94768 11.28732,-3.7629 1.03033,0.29792 1.9541,0.85021 2.83341,1.45062 0.28714,0.19479 0.56993,0.39875 0.85364,0.59812 -0.001,-0.14437 -0.004,-0.28875 -0.005,-0.43541 -0.008,-1.17104 0.019,-2.44291 0.0768,-3.79728 -1.51663,-2.19311 -3.00757,-4.40685 -4.56269,-6.57246 -1.07983,-1.50333 -2.28891,-3.02728 -3.8564,-4.04936 -1.65366,-1.07708 -3.54084,-1.33833 -5.41862,-0.70354 -0.9783,0.33 -1.85464,0.85708 -2.64938,1.49416 -0.50394,3.71248 -0.97648,7.50288 -1.40891,11.37349 -0.24108,2.15645 -0.45467,4.42289 -0.64373,6.77184 1.16439,-0.79062 2.32901,-1.57895 3.4934,-2.36728" />
    <path
       id="path84"
       style="fill:#95693f;fill-opacity:1;fill-rule:nonzero;stroke:none;stroke-width:0.0229166"
       d="m 82.860377,204.20083 c 0.97143,0.7975 1.73478,1.84937 2.5018,2.83707 0.20808,0.26584 0.40883,0.53854 0.61347,0.80896 -0.20579,-2.44978 -0.38545,-4.94998 -0.53281,-7.49601 -0.0715,-0.0367 -0.14277,-0.0733 -0.21427,-0.11 -2.21901,-1.14124 -4.43756,-2.28248 -6.65634,-3.42373 -1.12039,-0.5775 -2.24055,-1.15499 -3.36071,-1.7302 -0.95723,-0.4927 -1.91811,-0.99687 -2.97182,-1.25124 -1.96578,-0.47208 -3.88367,0.40791 -5.27906,1.77374 -0.32358,0.31625 -0.6153,0.66 -0.89007,1.01749 -0.17188,2.86916 -0.3135,5.8231 -0.429,8.82746 3.03392,-2.05791 6.7503,-3.04103 10.41557,-3.07082 2.37507,-0.0183 4.90643,0.25667 6.80324,1.81728" />
    <path
       id="path90"
       style="fill:#95693f;fill-opacity:1;fill-rule:nonzero;stroke:none;stroke-width:0.0229166"
       d="m 77.817587,234.0336 c -1.38966,-0.40103 -2.77061,-0.83186 -4.14584,-1.27874 -1.28539,-0.41937 -2.58017,-0.83645 -3.91575,-1.06333 -1.56795,-0.26812 -3.20946,-0.15354 -4.54824,0.58896 0.011,6.14392 0.0846,12.04952 0.18676,17.40054 1.22925,-0.61417 2.45849,-1.22833 3.68796,-1.84249 2.40555,-1.20312 4.81088,-2.40624 7.2162,-3.60707 2.27194,-1.13666 4.5251,-2.40853 6.91026,-3.2931 2.06111,-0.76542 4.38439,-1.11834 6.47782,-0.27501 0.3497,0.14209 0.69162,0.31167 1.01841,0.50646 -0.26927,-1.33833 -0.53533,-2.70644 -0.79681,-4.11123 -1.23932,-0.27729 -2.47751,-0.55687 -3.71317,-0.84791 -2.80842,-0.66229 -5.60607,-1.3727 -8.3776,-2.17708" />
    <path
       id="path92"
       style="fill:#95693f;fill-opacity:1;fill-rule:nonzero;stroke:none;stroke-width:0.0229166"
       d="m 80.190137,185.48718 c -1.80147,-0.28417 -3.64098,0.3552 -5.22818,1.15728 -1.82393,0.92125 -3.49111,2.11978 -5.17868,3.26332 -1.13988,0.77229 -2.27975,1.54458 -3.41939,2.31686 -0.0509,0.69208 -0.10037,1.38875 -0.14735,2.09229 0.12146,-0.11 0.2459,-0.21542 0.37377,-0.31854 1.77534,-1.42083 3.97671,-2.12208 6.22047,-1.51708 1.14789,0.30937 2.21236,0.87541 3.264,1.41624 1.16302,0.60042 2.32627,1.19854 3.48974,1.79666 1.92888,0.99229 3.85777,1.98457 5.78689,2.97686 -0.17967,-3.44894 -0.30273,-6.97809 -0.35659,-10.58286 -0.70674,-0.51792 -1.42082,-1.02896 -2.15851,-1.50104 -0.81857,-0.5225 -1.67817,-0.94645 -2.64617,-1.09999" />
    <path
       id="path102"
       style="fill:#95693f;fill-opacity:1;fill-rule:nonzero;stroke:none;stroke-width:0.0229166"
       d="m 69.883187,230.24779 c 1.42655,0.21541 2.80682,0.6577 4.17494,1.10458 1.44237,0.46979 2.89069,0.91895 4.34865,1.33832 3.70652,1.06792 7.4552,1.97312 11.21787,2.81874 -0.83553,-4.62685 -1.61561,-9.58828 -2.29005,-14.84763 -0.54793,-0.32083 -1.10503,-0.62791 -1.67222,-0.91438 -1.84546,-0.9327 -3.80598,-1.7279 -5.85083,-2.08769 -1.9793,-0.34833 -3.96364,-0.11229 -5.7729,0.77229 -1.80674,0.88228 -3.37996,2.16332 -4.95662,3.39394 -1.28539,1.00374 -2.57032,2.00749 -3.85549,3.00894 -0.014,1.95937 -0.0204,3.90727 -0.0204,5.83455 1.44167,-0.58207 3.08479,-0.66228 4.67703,-0.42166" />
    <path
       id="path108"
       style="fill:#95693f;fill-opacity:1;fill-rule:nonzero;stroke:none;stroke-width:0.0229166"
       d="m 86.372337,258.54515 c 3.22802,1.17104 6.40174,2.49103 9.5138,3.94394 -1.44924,-5.01872 -3.121,-11.44453 -4.71462,-19.04365 -0.72852,-0.9075 -1.86334,-1.49188 -3.03025,-1.72791 -2.06134,-0.4148 -4.22513,0.40791 -6.06487,1.26728 -2.24857,1.04729 -4.45016,2.20457 -6.66917,3.31374 -3.32703,1.66374 -6.65406,3.32519 -9.98131,4.98893 0.0483,2.36499 0.10198,4.6131 0.15721,6.71226 0.75349,-0.51333 1.54343,-0.96938 2.38378,-1.34062 5.97136,-2.62624 12.65635,-0.20167 18.40543,1.88603" />
    <path
       id="path110"
       style="fill:#95693f;fill-opacity:1;fill-rule:nonzero;stroke:none;stroke-width:0.0229166"
       d="m 93.783087,263.11013 c -2.82583,-1.27187 -5.70484,-2.42687 -8.62602,-3.4604 -2.91406,-1.03353 -5.88841,-2.05561 -8.95876,-2.5002 -2.8719,-0.41708 -5.82219,-0.17645 -8.41084,1.20999 -0.76129,0.40792 -1.47308,0.88917 -2.15622,1.40708 0.25461,9.11391 0.52892,15.01722 0.52892,15.01722 h 33.73179 c 0,0 -1.45727,-3.71935 -3.4604,-10.4362 -0.87771,-0.42395 -1.75999,-0.83874 -2.64847,-1.23749" />
    <path
       id="path120"
       style="fill:#95693f;fill-opacity:1;fill-rule:nonzero;stroke:none;stroke-width:0.0229166"
       d="m 79.520517,132.64847 c 2.21122,-0.84791 4.5157,-1.53082 6.85113,-1.93644 1.20106,-0.21084 2.41747,-0.29104 3.60867,0.0206 0.81468,0.21312 1.57254,0.58437 2.26668,1.05416 0.10839,-0.57062 0.21679,-1.14125 0.32587,-1.71187 -1.48064,-1.76457 -3.01605,-3.48332 -4.61356,-5.14247 -1.52327,-1.58354 -3.07128,-3.22895 -4.91858,-4.44123 -1.23108,-0.80666 -2.67413,-1.43229 -4.15661,-1.56749 -1.24574,4.89955 -2.48942,10.13599 -3.69712,15.68409 1.40478,-0.73333 2.8515,-1.38875 4.33352,-1.95937" />
    <path
       id="path122"
       style="fill:#95693f;fill-opacity:1;fill-rule:nonzero;stroke:none;stroke-width:0.0229166"
       d="m 77.492167,139.20948 c 1.04408,0.17646 2.00291,0.73104 2.93951,1.19854 0.99756,0.49958 1.99099,1.00604 2.98007,1.51937 2.14132,1.11374 4.26087,2.26874 6.36095,3.45581 0.6868,-3.95998 1.41899,-7.991 2.17638,-12.01973 -0.3646,-0.29562 -0.75854,-0.55687 -1.18478,-0.77916 -1.86816,-0.97166 -3.87863,-0.55 -5.83089,-0.0871 -3.55803,0.84333 -6.97213,2.1954 -10.15066,3.98977 -0.23948,1.12291 -0.47781,2.25499 -0.71362,3.40311 1.03697,-0.58437 2.21007,-0.88687 3.42304,-0.68062" />
    <path
       id="path124"
       style="fill:#95693f;fill-opacity:1;fill-rule:nonzero;stroke:none;stroke-width:0.0229166"
       d="m 83.897347,149.99631 c 1.89016,1.12062 3.24567,2.83477 4.32275,4.73685 0.40425,-2.55978 0.83599,-5.17227 1.28929,-7.82142 -0.43794,-0.24979 -0.87289,-0.50417 -1.31267,-0.75167 -1.86472,-1.0427 -3.74571,-2.0579 -5.64228,-3.04102 -0.94829,-0.49271 -1.90047,-0.97854 -2.85632,-1.4552 -0.82522,-0.4125 -1.69468,-0.94187 -2.62692,-1.05646 -1.28563,-0.15812 -2.48255,0.50417 -3.42741,1.37729 -0.57978,2.8829 -1.14743,5.83914 -1.69765,8.86871 3.79314,-1.67062 8.10948,-3.1327 11.95121,-0.85708" />
    <path
       id="path126"
       style="fill:#95693f;fill-opacity:1;fill-rule:nonzero;stroke:none;stroke-width:0.0229166"
       d="m 72.389797,162.94645 c 0.93431,-0.5775 1.8771,-1.13895 2.82768,-1.68895 0.91964,-0.53166 1.84616,-1.12979 2.85471,-1.47812 1.0819,-0.37583 2.11314,-0.20395 3.13407,0.25667 0.97922,0.44 1.92866,0.96479 2.86434,1.48957 0.97808,0.55 1.93713,1.13208 2.87878,1.74166 0.27477,-1.98228 0.57268,-4.01727 0.891,-6.0958 -0.48447,-1.0175 -1.02025,-2.00749 -1.65412,-2.9379 -0.93569,-1.3727 -2.12804,-2.58957 -3.64213,-3.31374 -1.89016,-0.90062 -4.04775,-0.76083 -6.02041,-0.23375 -1.69033,0.45375 -3.29586,1.15729 -4.88467,1.88604 -0.69849,3.92789 -1.36811,7.97267 -1.99877,12.13202 0.90864,-0.59812 1.82392,-1.18708 2.74952,-1.7577" />
    <path
       id="path128"
       style="fill:#806753;fill-opacity:1;fill-rule:nonzero;stroke:none;stroke-width:0.0229166"
       d="m 81.336647,258.35952 c -1.6862,-0.5202 -3.39691,-0.95791 -5.13834,-1.20999 -0.82134,-0.11917 -1.64931,-0.18562 -2.47316,-0.18562 -0.77206,0 -1.54068,0.0573 -2.29716,0.18104 -0.12581,-0.46979 -0.24199,-0.94187 -0.34993,-1.41624 0.87106,-0.14896 1.75128,-0.21542 2.63494,-0.21542 2.46445,0 4.95892,0.5225 7.38441,1.23749 0.0859,0.53167 0.17233,1.07021 0.23924,1.60874 m -11.30382,-9.37516 c -0.0513,-0.51562 -0.0979,-1.03353 -0.14093,-1.55145 2.13559,-1.06791 4.27141,-2.13353 6.40678,-3.20144 0.93293,-0.46749 1.86266,-0.95562 2.79971,-1.43228 0.0637,0.51104 0.1288,1.02437 0.19457,1.5377 -1.29799,0.64853 -2.58889,1.31312 -3.88573,1.96166 -1.79139,0.89603 -3.58278,1.79207 -5.3744,2.68581 m 8.08084,-14.86367 c -0.0985,-0.0298 -0.19731,-0.0573 -0.29608,-0.0871 -1.38966,-0.40103 -2.77061,-0.83186 -4.14584,-1.27874 -1.28539,-0.41937 -2.58017,-0.83645 -3.91575,-1.06333 -0.24727,-0.0435 -0.4966,-0.0756 -0.74616,-0.0985 -0.019,-0.48353 -0.0374,-0.96249 -0.055,-1.44833 0.31029,0.0229 0.62011,0.0573 0.92834,0.10313 1.42656,0.21541 2.80682,0.6577 4.17495,1.10458 1.29409,0.42166 2.593,0.82729 3.89924,1.20999 0.0513,0.52021 0.10313,1.03583 0.15629,1.55833 m -9.37493,-12.02661 c -0.0101,-0.60271 -0.019,-1.2077 -0.0261,-1.81041 0.0891,-0.0687 0.17829,-0.13749 0.26743,-0.20625 1.6807,-1.30853 3.39441,-2.59186 5.39571,-3.36873 0.75006,-0.29104 1.52212,-0.47667 2.30334,-0.57291 0.0282,0.48812 0.057,0.97166 0.0869,1.45978 -0.9366,0.13062 -1.85235,0.40791 -2.7273,0.83646 -1.80674,0.88228 -3.37997,2.16332 -4.95662,3.39394 -0.11459,0.0894 -0.22894,0.17874 -0.34329,0.26812 m 0.12672,-16.77721 c 0.0183,-0.52937 0.0381,-1.05645 0.0591,-1.58582 2.2582,-0.89146 4.70638,-1.32916 7.13256,-1.3475 0.0179,0 0.036,0 0.054,0 0.0121,0.48583 0.025,0.96708 0.039,1.45291 -0.77114,0.002 -1.54182,0.0481 -2.30747,0.1375 -1.70568,0.19938 -3.40059,0.64625 -4.97725,1.34291" />
    <path
       id="path130"
       style="fill:#a98563;fill-opacity:1;fill-rule:nonzero;stroke:none;stroke-width:0.0229166"
       d="m 68.712607,220.28367 c -0.0603,-4.99122 -0.0188,-9.98474 0.15285,-14.9668 1.57666,-0.69666 3.27157,-1.14353 4.97725,-1.34291 0.76565,-0.0894 1.53633,-0.13521 2.30747,-0.1375 0.11687,4.10206 0.29264,8.20413 0.52892,12.29932 -0.78123,0.0962 -1.55329,0.28187 -2.30335,0.57291 -2.0013,0.77687 -3.715,2.0602 -5.3957,3.36873 -0.0891,0.0688 -0.17829,0.1375 -0.26744,0.20625" />
    <path
       id="path132"
       style="fill:#806753;fill-opacity:1;fill-rule:nonzero;stroke:none;stroke-width:0.0229166"
       d="m 75.992967,195.48796 c -0.26056,-0.13292 -0.52089,-0.26812 -0.78145,-0.40104 -0.95723,-0.4927 -1.91811,-0.99687 -2.97182,-1.25124 -0.36529,-0.0871 -0.72897,-0.12833 -1.08785,-0.12833 -0.56833,0 -1.1252,0.10312 -1.65801,0.28645 0.0399,-0.51333 0.0813,-1.02437 0.12444,-1.5377 0.50714,-0.12604 1.0278,-0.1925 1.55603,-0.1925 0.53923,0 1.08647,0.071 1.63647,0.21771 1.11375,0.30021 2.14888,0.84333 3.17005,1.36812 0.003,0.5477 0.007,1.09312 0.0121,1.63853 m -6.14186,-5.62601 c 0.0598,-0.62562 0.12214,-1.25354 0.18723,-1.87916 1.79963,-1.21916 3.83141,-2.61478 5.98878,-3.40082 -0.008,0.52708 -0.0153,1.05416 -0.0216,1.58125 -0.3575,0.14666 -0.70629,0.31166 -1.04362,0.48124 -1.79963,0.9075 -3.44642,2.08999 -5.11085,3.21749 m 6.28029,-18.71596 c -0.91873,-0.49499 -1.89865,-0.74937 -2.90147,-0.74937 -0.17944,0 -0.35933,0.009 -0.53992,0.0252 0.17508,-0.55229 0.38569,-1.05874 0.61554,-1.48499 0.9036,0.009 1.78979,0.19021 2.62876,0.51791 0.0607,0.32313 0.11114,0.69438 0.14919,1.11146 0.0174,0.19479 0.0334,0.38729 0.0479,0.57979" />
    <path
       id="path134"
       style="fill:#a98563;fill-opacity:1;fill-rule:nonzero;stroke:none;stroke-width:0.0229166"
       d="m 75.934307,169.45475 c -0.83898,-0.3277 -1.72516,-0.50874 -2.62876,-0.51791 0.45283,-0.84104 0.98037,-1.37729 1.45818,-1.37729 0.48468,0 0.91804,0.55229 1.17058,1.8952" />
    <path
       id="path136"
       style="fill:#a98563;fill-opacity:1;fill-rule:nonzero;stroke:none;stroke-width:0.0229166"
       d="m 70.038337,187.98279 c 0.56489,-5.44497 1.32778,-10.86703 2.3274,-16.2593 0.0839,-0.45146 0.1941,-0.88916 0.32427,-1.30166 0.18058,-0.0161 0.36048,-0.0252 0.53992,-0.0252 1.00282,0 1.98273,0.25438 2.90146,0.74937 0.2727,3.65749 0.0142,7.40205 -0.0615,11.05266 -0.0165,0.7952 -0.0307,1.59041 -0.0429,2.38332 -2.15736,0.78604 -4.18914,2.18166 -5.98878,3.40082" />
    <path
       id="path138"
       style="fill:#a98563;fill-opacity:1;fill-rule:nonzero;stroke:none;stroke-width:0.0229166"
       d="m 68.924587,203.73105 c 0.13017,-3.24957 0.3174,-6.49685 0.56925,-9.73725 0.53281,-0.18333 1.08968,-0.28645 1.65801,-0.28645 0.35888,0 0.72256,0.0412 1.08785,0.12833 1.05371,0.25437 2.01459,0.75854 2.97182,1.25124 0.26056,0.13292 0.52089,0.26812 0.78145,0.40104 0.0211,2.29853 0.0605,4.59935 0.11825,6.89559 -0.0181,0 -0.0362,0 -0.054,0 -2.42617,0.0183 -4.87435,0.45604 -7.13255,1.3475" />
    <path
       id="path140"
       style="fill:#a98563;fill-opacity:1;fill-rule:nonzero;stroke:none;stroke-width:0.0229166"
       d="m 69.891897,247.43291 c -0.10931,-1.31541 -0.19525,-2.63082 -0.27546,-3.94164 -0.24292,-3.95998 -0.45008,-7.92684 -0.6066,-11.89828 0.24956,0.0229 0.49889,0.055 0.74616,0.0985 1.33558,0.22688 2.63036,0.64396 3.91575,1.06333 1.37523,0.44688 2.75618,0.87771 4.14584,1.27874 0.0988,0.0298 0.19754,0.0573 0.29608,0.0871 0.29631,2.89436 0.62447,5.79101 0.98472,8.6785 -0.93705,0.47666 -1.86678,0.96479 -2.79971,1.43228 -2.13537,1.06791 -4.27119,2.13353 -6.40678,3.20144" />
    <path
       id="path142"
       style="fill:#a98563;fill-opacity:1;fill-rule:nonzero;stroke:none;stroke-width:0.0229166"
       d="m 75.980827,193.84943 c -1.02117,-0.52479 -2.0563,-1.06791 -3.17005,-1.36812 -0.55,-0.14667 -1.09724,-0.21771 -1.63647,-0.21771 -0.52823,0 -1.04889,0.0665 -1.55603,0.1925 0.0729,-0.86624 0.15033,-1.72791 0.23283,-2.59415 1.66443,-1.1275 3.31121,-2.30999 5.11085,-3.21749 0.33733,-0.16958 0.68612,-0.33458 1.04362,-0.48124 -0.0305,2.56207 -0.0387,5.12184 -0.0248,7.68621" />
    <path
       id="path144"
       style="fill:#a98563;fill-opacity:1;fill-rule:nonzero;stroke:none;stroke-width:0.0229166"
       d="m 77.957377,232.56236 c -1.30624,-0.3827 -2.60516,-0.78833 -3.89925,-1.20999 -1.36812,-0.44688 -2.74839,-0.88917 -4.17494,-1.10458 -0.30823,-0.0458 -0.61806,-0.0802 -0.92835,-0.10313 -0.0974,-2.68123 -0.17096,-5.36476 -0.2161,-8.05058 0.11435,-0.0894 0.22871,-0.17875 0.34329,-0.26812 1.57666,-1.23062 3.14988,-2.51166 4.95662,-3.39394 0.87496,-0.42855 1.7907,-0.70584 2.7273,-0.83646 0.3057,4.99352 0.70216,9.98704 1.19143,14.9668" />
    <path
       id="path146"
       style="fill:#a98563;fill-opacity:1;fill-rule:nonzero;stroke:none;stroke-width:0.0229166"
       d="m 81.097407,256.75078 c -2.42549,-0.71499 -4.91996,-1.23749 -7.38441,-1.23749 -0.88366,0 -1.76388,0.0665 -2.63494,0.21542 -0.50165,-2.20686 -0.81904,-4.46873 -1.04523,-6.74435 1.79162,-0.89374 3.58301,-1.78978 5.3744,-2.68581 1.29684,-0.64854 2.58774,-1.31313 3.88573,-1.96166 0.53189,4.13185 1.13001,8.25454 1.79666,12.36577 0.003,0.016 0.005,0.0321 0.008,0.0481" />
    <path
       id="path148"
       style="fill:#a98563;fill-opacity:1;fill-rule:nonzero;stroke:none;stroke-width:0.0229166"
       d="m 77.320067,265.68137 c -0.14002,0 -0.28118,-0.009 -0.42327,-0.0298 -1.81614,-0.25895 -2.99496,-2.02352 -3.75831,-3.69185 -0.71248,-1.55833 -1.26958,-3.16936 -1.7105,-4.81477 0.75648,-0.12375 1.5251,-0.18104 2.29716,-0.18104 0.82385,0 1.65182,0.0665 2.47316,0.18563 1.74143,0.25207 3.45214,0.68978 5.13834,1.20998 0.17165,1.37959 0.21702,2.76833 -0.19043,4.08603 -0.52869,1.70958 -2.08105,3.23582 -3.82615,3.23582" />
    <path
       id="path88"
       style="fill:#95693f;fill-opacity:1;fill-rule:nonzero;stroke:none;stroke-width:0.0239682"
       d="m 97.710167,104.66707 c 0.60159,-2.84023 1.18881,-5.574999 1.75159,-8.168359 -1.06323,-0.70946 -2.18878,-1.33263 -3.36538,-1.83356 -1.40645,-0.59681 -2.8884,-1.01386 -4.42692,-0.82211 -2.54518,0.31877 -4.75289,1.93423 -6.71613,3.5425 -0.33267,1.06898 -0.67015,2.17151 -1.01146,3.302809 1.81679,0.0216 3.65132,0.14621 5.44079,0.39548 3.02789,0.42184 6.09199,1.49801 8.32751,3.58324" />
    <path
       id="path96"
       style="fill:#95693f;fill-opacity:1;fill-rule:nonzero;stroke:none;stroke-width:0.0234473"
       d="m 89.642127,108.79381 c 1.05161,-0.34937 2.12948,-0.80424 3.22189,-1.00823 1.10929,-0.20634 2.05703,0.075 2.97218,0.71279 0.31677,0.22275 0.62252,0.45957 0.92007,0.70811 0.19907,-0.95665 0.3972,-1.90157 0.59439,-2.83712 -0.81057,-0.92382 -1.81271,-1.6671 -2.90278,-2.2486 -2.99703,-1.5991 -6.47098,-1.82889 -9.8005,-1.9344 -0.37656,-0.0141 -0.75805,-0.0328 -1.13977,-0.0446 -0.90437,3.03877 -1.83194,6.28622 -2.76936,9.73532 1.91822,-0.68935 3.8402,-1.36698 5.7685,-2.02585 1.04341,-0.3564 2.08868,-0.70811 3.13538,-1.05747" />
    <path
       id="path100"
       style="fill:#95693f;fill-opacity:1;fill-rule:nonzero;stroke:none;stroke-width:0.0230318"
       d="m 94.453917,109.34943 c -0.86438,-0.4353 -1.8004,-0.0207 -2.64935,0.25796 -3.86151,1.26675 -7.70299,2.59108 -11.52489,3.97068 -0.34341,1.28287 -0.68727,2.59338 -1.03182,3.92923 1.75847,0.20498 3.44878,0.96734 4.8885,1.97613 1.94457,1.36118 3.60309,3.1093 5.23306,4.82056 1.22045,1.28287 2.40406,2.59799 3.55496,3.94305 1.1479,-5.94452 2.33312,-11.81993 3.49162,-17.40515 -0.58316,-0.55967 -1.23542,-1.12625 -1.96208,-1.49246" />
    <path
       id="path106"
       style="fill:#95693f;fill-opacity:1;fill-rule:nonzero;stroke:none;stroke-width:0.025285"
       d="m 91.539927,80.261096 c 1.47563,-0.63971 3.02232,-1.069555 4.60465,-1.350218 1.53177,-0.273078 3.09058,-0.452601 4.648393,-0.445015 0.8736,0.0051 1.76262,0.07333 2.63622,0.219979 0.93933,-4.108811 1.50445,-6.498239 1.50445,-6.498239 H 93.932647 c 0,0 -1.29889,2.970986 -3.35127,8.541265 0.31429,-0.16688 0.63288,-0.326176 0.95855,-0.467772" />
    <path
       id="path114"
       style="fill:#95693f;fill-opacity:1;fill-rule:nonzero;stroke:none;stroke-width:0.0248244"
       d="m 95.865327,80.438071 c -2.17734,0.446838 -4.34326,1.194051 -6.10132,2.537048 -0.32868,0.913537 -0.67126,1.881687 -1.02773,2.906933 1.44577,-0.186183 2.90271,-0.250726 4.35965,-0.171288 1.43261,0.08192 2.86374,0.295409 4.18563,0.876299 1.23874,0.543658 2.13217,1.444778 2.959563,2.484918 0.21448,0.27058 0.43393,0.55606 0.66653,0.82913 0.83535,-3.775781 1.5833,-7.09728 2.20118,-9.810581 -2.38586,-0.394708 -4.905293,-0.134052 -7.243503,0.347541" />
    <path
       id="path118"
       style="fill:#95693f;fill-opacity:1;fill-rule:nonzero;stroke:none;stroke-width:0.0243702"
       d="m 99.212637,90.104161 c -0.76108,-0.95775 -1.54507,-1.80339 -2.70362,-2.27373 -1.26798,-0.51421 -2.66123,-0.64825 -4.01669,-0.68724 -1.44125,-0.0439 -2.87665,0.0609 -4.29159,0.29 -0.78081,2.28105 -1.61671,4.80092 -2.49111,7.54988 0.60316,-0.43136 1.22362,-0.84078 1.87236,-1.20145 1.38593,-0.77254 2.90126,-1.32818 4.49507,-1.42566 1.74417,-0.10479 3.40768,0.4606 4.9798,1.15758 0.94751,0.41917 1.85896,0.91632 2.73384,1.47196 0.254183,-1.16489 0.502513,-2.2981 0.744513,-3.3972 -0.48448,-0.4411 -0.908763,-0.96505 -1.322573,-1.48414" />
    <path
       id="path152"
       style="fill:#5f3ddc;fill-opacity:1;fill-rule:nonzero;stroke:none;stroke-width:0.0257637"
       d="m 32.200177,93.049081 c -8.11402,9.767019 -13.607946,21.512699 -17.243975,33.678319 -3.635829,12.16562 -5.4785506,24.79499 -6.8723456,37.41663 4.4219056,-8.48657 8.8435206,-16.97313 13.2654266,-25.46227 -1.785427,6.5311 -2.451621,13.36879 -1.961158,20.12145 2.142534,-3.22304 3.206322,-7.01803 4.348672,-10.71512 4.53725,-14.68016 10.80093,-28.82444 18.62098,-42.04895 -1.5046,12.20942 -3.01126,24.53993 -1.80912,36.78285 1.19414,-5.57012 2.38803,-11.14023 3.58193,-16.71034 0.44313,2.45012 0.88626,4.90025 1.32914,7.35038 2.43313,-11.17887 6.14826,-22.07949 11.04954,-32.41847 -0.0871,5.88958 1.24774,11.79462 3.85967,17.07361 1.58833,-4.69157 3.1764,-9.38314 4.76448,-14.07214 0.0801,3.80015 0.1605,7.6003 0.24089,11.40302 2.5269,-9.86235 5.97202,-19.490249 10.27559,-28.716227 1.39407,8.277878 4.14899,16.323887 8.12098,23.720647 -0.51553,-0.96099 5.50983,-10.506439 6.19952,-11.993009 1.89647,-4.08097 3.62006,-8.24439 5.16511,-12.472209 2.0294,-5.552079 5.077513,-13.296648 -0.79971,-17.68421 -5.2509,-3.918659 -14.43102,-1.558703 -20.24177,-0.306587 -7.56242,1.628269 -14.87725,4.410746 -21.61188,8.218622 -7.68996,4.346338 -14.63353,10.032389 -20.28197,16.834004" />
    <path
       id="path156"
       style="fill:#5f3ddc;fill-opacity:1;fill-rule:nonzero;stroke:none;stroke-width:0.0257433"
       d="m 167.87945,85.167349 c 18.34417,15.497471 29.64239,38.576341 32.44197,62.424951 -4.02445,-9.18007 -8.04864,-18.35756 -12.07309,-27.53762 0.0953,9.40918 -0.68014,18.82608 -2.31355,28.0911 -3.09718,-10.46723 -5.67357,-21.08892 -7.71733,-31.81358 -0.45257,5.06113 -0.90539,10.12484 -1.35796,15.18597 -2.14339,-11.19061 -5.45913,-22.15211 -9.87488,-32.655379 -0.48423,10.323059 -0.96897,20.643559 -1.45347,30.966619 -1.80821,-6.39978 -3.82082,-12.74293 -6.03371,-19.01658 0.29707,4.62092 0.59492,9.24185 0.89226,13.86277 -3.60586,-13.00037 -7.34302,-26.286489 -15.09279,-37.327789 1.64269,6.08571 2.35578,12.42114 2.10683,18.717959 -2.96382,-3.92071 -5.72865,-7.990729 -8.27956,-12.192039 1.55619,4.68786 2.33003,9.633149 2.27932,14.570719 -5.89342,-10.438919 -11.7871,-20.880399 -17.68051,-31.319312 1.19526,5.138365 2.39053,10.279303 3.58579,15.417673 -4.30815,-4.62865 -8.77744,-9.107987 -13.39656,-13.427714 1.51216,4.134375 3.02406,8.271324 4.53623,12.405704 -1.28768,-2.81632 -6.71618,-6.016215 -9.07195,-8.127166 -3.17415,-2.844636 -6.65928,-5.53996 -9.611773,-8.611134 -6.50457,-6.762771 1.560553,-7.697251 7.460663,-8.405195 13.83523,-1.660444 28.02597,0.782597 40.74368,6.384345 7.17929,3.163853 13.91657,7.341989 19.91039,12.405698" />
    <path
       id="path160"
       style="fill:#5f3ddc;fill-opacity:1;fill-rule:nonzero;stroke:none;stroke-width:0.026877"
       d="m 69.836737,62.495759 c -0.63081,-0.6558 -1.27478,-1.467486 -1.14093,-2.367861 0.0986,-0.663862 0.60124,-1.185279 1.09093,-1.642184 10.60943,-9.933737 27.63654,-12.247844 40.511423,-5.504412 1.93488,1.013264 3.81707,2.246919 5.11738,4.001984 1.30004,1.752382 1.93622,4.117555 1.20167,6.173646 -0.71492,2.002336 -2.55036,3.373064 -4.39116,4.432014 -12.822473,7.39386 -31.936853,5.759738 -42.389313,-5.093187" />
    <path
       id="path164"
       style="fill:#8d7bcd;fill-opacity:1;fill-rule:nonzero;stroke:none;stroke-width:0.0254211"
       d="m 43.849487,89.583701 c -0.61163,-2.56499 1.64932,-4.855432 3.77351,-6.416288 7.62582,-5.610438 16.43119,-9.586301 25.65574,-11.691164 1.2952,-0.294888 4.73849,-1.085481 8.41718,-1.507476 3.60344,1.281225 7.45652,1.987935 11.32586,2.125209 0.46089,0.86177 0.50284,2.003181 -0.0275,3.492857 -0.71637,2.010808 -2.77065,3.292034 -4.85874,3.739445 -0.9299,0.200827 -1.87456,0.264379 -2.82479,0.264379 -1.18437,0 -2.37764,-0.09914 -3.56074,-0.165237 -1.04023,-0.05592 -2.08148,-0.08389 -3.12324,-0.08389 -9.59036,0 -19.17768,2.399753 -27.62257,6.947589 -2.31917,1.250716 -4.59537,2.674296 -7.15477,3.294576" />
    <path
       id="path168"
       style="fill:#8d7bcd;fill-opacity:1;fill-rule:nonzero;stroke:none;stroke-width:0.0254378"
       d="m 93.021777,72.092365 c -3.8691,-0.137365 -7.72242,-0.844536 -11.32569,-2.124059 1.43495,-0.165344 2.90602,-0.272184 4.29874,-0.272184 3.23976,0 6.05827,0.582525 7.02695,2.396243" />
    <path
       id="path172"
       style="fill:#8d7bcd;fill-opacity:1;fill-rule:nonzero;stroke:none;stroke-width:0.026591"
       d="m 77.885297,62.498565 c -0.3869,0 -0.76821,-0.07711 -1.12667,-0.249954 -1.49015,-0.725938 -1.82759,-2.850556 -1.08916,-4.334333 0.7387,-1.483778 2.2262,-2.433076 3.70519,-3.180282 5.06133,-2.558052 10.1918,-3.834425 15.75091,-3.834425 0.70307,0 1.41304,0.02131 2.1302,0.06119 0.67408,0.03722 1.37157,0.101046 1.95949,0.430778 0.58767,0.332382 1.033593,1.010457 0.885753,1.669915 -0.124443,0.553091 -0.617183,0.943977 -1.113893,1.217863 -2.12037,1.175327 -4.68455,1.037052 -7.10592,1.140755 -3.02499,0.130297 -6.21166,0.7738 -8.4219,2.845235 -1.02189,0.957275 -1.7816,2.172487 -2.83965,3.089876 -0.75652,0.656794 -1.76219,1.143412 -2.73435,1.143412" />
    <path
       id="path176"
       style="fill:#8d7bcd;fill-opacity:1;fill-rule:nonzero;stroke:none;stroke-width:0.02413"
       d="m 22.924437,122.43125 c -0.49442,0 -0.96327,-0.20269 -1.177304,-0.64668 -0.149844,-0.30887 -0.148155,-0.6684 -0.119924,-1.01105 0.134168,-1.62395 0.792668,-3.15379 1.464208,-4.63778 3.41415,-7.55028 7.39512,-14.84719 11.89753,-21.803859 0.6158,-0.95313 1.26248,-1.92075 2.18593,-2.57708 0.70002,-0.49949 1.49727,-0.74079 2.22286,-0.74079 1.58751,0 2.83262,1.15582 1.96684,3.31546 -0.46885,1.1703 -1.42946,2.05587 -2.33096,2.93662 -6.32857,6.170029 -11.08532,13.942299 -13.70294,22.385379 -0.26808,0.86627 -0.54775,1.79045 -1.24124,2.37198 -0.31659,0.26543 -0.74972,0.4078 -1.165,0.4078" />
  </g>
</svg>
